<?xml version="1.0" standalone="no"?>
<!DOCTYPE svg PUBLIC "-//W3C//DTD SVG 20010904//EN"
 "http://www.w3.org/TR/2001/REC-SVG-20010904/DTD/svg10.dtd">
<svg version="1.0" xmlns="http://www.w3.org/2000/svg"
 width="24.000000pt" height="26.000000pt" viewBox="0 0 24.000000 26.000000"
 preserveAspectRatio="xMidYMid meet">

<g transform="translate(0.000000,26.000000) scale(0.100000,-0.100000)"
fill="#000000" stroke="none">
<path d="M4 247 c-2 -7 -3 -65 -2 -128 l3 -114 103 -3 c91 -2 103 -1 108 15 3
10 11 28 17 41 9 18 8 25 -3 33 -12 8 -12 12 -2 16 6 2 12 13 12 23 0 10 -6
21 -12 24 -10 5 -10 7 0 12 14 7 17 34 3 34 -5 0 -11 12 -13 28 l-3 27 -103 3
c-79 2 -104 0 -108 -11z m136 -62 c16 -19 6 -43 -22 -55 -20 -8 -18 -9 12 -7
33 2 35 0 38 -30 l3 -33 -60 0 c-53 0 -61 2 -61 19 0 30 11 51 27 51 10 0 12
4 4 17 -21 39 31 72 59 38z"/>
</g>
</svg>
