<?xml version="1.0" standalone="no"?>
<!DOCTYPE svg PUBLIC "-//W3C//DTD SVG 20010904//EN"
 "http://www.w3.org/TR/2001/REC-SVG-20010904/DTD/svg10.dtd">
<svg version="1.0" xmlns="http://www.w3.org/2000/svg"
 width="228.000000pt" height="228.000000pt" viewBox="0 0 228.000000 228.000000"
 preserveAspectRatio="xMidYMid meet">

<g transform="translate(0.000000,228.000000) scale(0.100000,-0.100000)"
fill="#000000" stroke="none">
<path d="M980 1770 c0 -33 4 -60 10 -60 6 0 10 27 10 60 0 33 -4 60 -10 60 -6
0 -10 -27 -10 -60z"/>
<path d="M1550 1715 c0 -25 5 -45 10 -45 6 0 10 20 10 45 0 25 -4 45 -10 45
-5 0 -10 -20 -10 -45z"/>
<path d="M825 1680 c-3 -5 0 -13 8 -16 23 -9 112 0 110 11 -4 14 -110 19 -118
5z"/>
<path d="M1022 1678 c3 -8 27 -14 61 -16 46 -2 57 0 57 13 0 12 -13 15 -61 15
-44 0 -60 -3 -57 -12z"/>
<path d="M1482 1662 c-18 -2 -30 -8 -27 -13 8 -12 75 -12 75 0 0 14 -11 17
-48 13z"/>
<path d="M1590 1650 c0 -5 16 -10 35 -10 19 0 35 5 35 10 0 6 -16 10 -35 10
-19 0 -35 -4 -35 -10z"/>
<path d="M980 1575 c0 -37 4 -65 10 -65 6 0 10 28 10 65 0 37 -4 65 -10 65 -6
0 -10 -28 -10 -65z"/>
<path d="M1550 1590 c0 -22 5 -40 10 -40 6 0 10 18 10 40 0 22 -4 40 -10 40
-5 0 -10 -18 -10 -40z"/>
<path d="M1212 1573 c2 -17 9 -28 18 -28 9 0 16 11 18 28 3 22 -1 27 -18 27
-17 0 -21 -5 -18 -27z"/>
<path d="M680 1505 c0 -27 3 -45 7 -41 7 7 5 77 -3 85 -2 2 -4 -17 -4 -44z"/>
<path d="M1145 1520 c3 -5 19 -10 36 -10 16 0 29 5 29 10 0 6 -16 10 -36 10
-21 0 -33 -4 -29 -10z"/>
<path d="M1250 1520 c0 -5 14 -10 30 -10 17 0 30 5 30 10 0 6 -13 10 -30 10
-16 0 -30 -4 -30 -10z"/>
<path d="M1217 1504 c-4 -4 -7 -20 -7 -36 0 -23 4 -29 18 -26 11 2 17 13 17
32 0 29 -14 43 -28 30z"/>
<path d="M577 1443 c-16 -16 -4 -23 38 -23 33 0 45 4 45 15 0 11 -11 15 -38
15 -21 0 -42 -3 -45 -7z"/>
<path d="M717 1443 c-16 -16 -4 -23 38 -23 33 0 45 4 45 15 0 11 -11 15 -38
15 -21 0 -42 -3 -45 -7z"/>
<path d="M680 1365 c0 -27 3 -45 7 -41 7 7 5 77 -3 85 -2 2 -4 -17 -4 -44z"/>
<path d="M844 1333 c-11 -10 -39 -45 -63 -78 -24 -33 -54 -69 -66 -80 -44 -40
-39 -86 15 -135 9 -8 28 -33 43 -55 14 -22 39 -56 56 -75 17 -19 31 -38 31
-42 0 -4 6 -13 13 -20 7 -7 26 -31 42 -53 46 -61 58 -76 88 -108 15 -17 27
-35 27 -41 0 -6 14 -24 30 -39 17 -16 30 -34 30 -41 0 -7 12 -26 28 -43 15
-16 40 -45 55 -63 31 -37 28 -38 82 40 13 19 37 51 54 70 17 19 31 38 31 41 0
6 14 23 65 81 13 14 31 40 40 57 8 17 19 31 23 31 4 0 16 15 27 32 10 18 26
40 35 48 9 8 38 47 65 85 27 39 55 74 62 78 7 4 13 14 13 21 0 7 12 25 27 40
l26 26 -37 55 c-21 29 -47 64 -59 77 -12 13 -34 43 -50 66 l-27 42 -344 0
c-313 0 -345 -2 -362 -17z m256 -2 c0 -14 -40 -63 -126 -153 l-54 -58 -100 0
c-55 0 -100 4 -100 9 0 4 14 25 30 46 17 21 30 41 30 44 0 3 21 28 45 54 25
27 45 52 45 58 0 5 50 9 115 9 63 0 115 -4 115 -9z m197 -38 c25 -27 52 -60
61 -75 9 -16 19 -28 23 -28 14 0 49 -38 49 -54 0 -14 -24 -16 -225 -16 -201 0
-225 2 -225 16 0 9 8 24 18 33 17 14 59 63 125 143 19 24 30 27 75 28 51 0 56
-2 99 -47z m270 -14 c26 -34 60 -75 76 -92 15 -16 27 -38 27 -48 0 -17 -9 -19
-93 -19 l-93 0 -70 76 c-38 42 -76 87 -84 100 -8 13 -18 24 -22 24 -5 0 -8 5
-8 10 0 6 43 10 110 10 l109 0 48 -61z m-631 -196 c4 -10 12 -31 19 -48 7 -16
21 -50 31 -75 9 -25 21 -49 26 -54 4 -6 8 -18 8 -29 0 -10 11 -42 24 -70 13
-29 31 -77 41 -107 10 -30 26 -72 36 -93 21 -43 23 -57 10 -57 -5 0 -16 15
-25 34 -9 19 -20 36 -24 38 -4 2 -25 28 -47 58 -38 54 -68 92 -132 169 -18 21
-33 43 -33 48 0 6 -12 23 -27 40 -40 43 -57 65 -79 101 -10 18 -21 32 -25 32
-4 0 -9 7 -13 15 -5 13 10 15 100 15 91 0 105 -2 110 -17z m499 -15 c-4 -18
-11 -39 -15 -48 -10 -20 -50 -110 -61 -135 -4 -11 -11 -31 -14 -45 -3 -14 -15
-44 -26 -68 -10 -23 -28 -61 -38 -85 -11 -23 -23 -53 -26 -67 -3 -14 -10 -34
-15 -45 -4 -11 -14 -35 -22 -52 -13 -32 -28 -44 -28 -22 0 6 -7 27 -16 47 -9
21 -19 46 -24 57 -4 11 -17 40 -29 63 -11 24 -21 51 -21 59 0 8 -6 29 -14 46
-7 18 -23 52 -34 77 -11 25 -23 61 -27 80 -4 19 -11 41 -15 50 -4 8 -17 35
-29 58 -11 24 -21 48 -21 53 0 5 104 9 241 9 l241 0 -7 -32z m235 24 c0 -12
-32 -56 -52 -70 -10 -7 -18 -19 -18 -26 0 -12 -9 -25 -65 -87 -13 -15 -28 -36
-34 -47 -6 -11 -17 -26 -24 -34 -7 -7 -35 -43 -62 -80 -27 -38 -52 -68 -56
-68 -4 0 -10 -8 -13 -18 -8 -25 -75 -96 -83 -89 -3 4 9 37 27 74 39 81 47 100
55 133 6 24 29 77 66 153 10 20 21 53 25 72 3 19 10 38 15 41 5 3 9 14 9 24 0
10 6 21 13 23 20 9 197 8 197 -1z"/>
</g>
</svg>
